Input #0, mpegts, from 'test.ts':
  Duration: 00:00:49.09, start: 1.400000, bitrate: 3005 kb/s
  Program 1 
    Metadata:
      service_name    : Service01
      service_provider: Libav
    Stream #0.0[0x100]: Video: mpeg2video (Main), yuv420p, 720x576 [PAR 64:45 DAR 16:9], 15000 kb/s, 25 fps, 25 tbr, 90k tbn, 50 tbc
    Stream #0.1[0x101](fra): Audio: mp2, 48000 Hz, stereo, s16, 256 kb/s
    Stream #0.2[0x102]: Audio: mp2, 44100 Hz, stereo, s16, 128 kb/s
At least one output file must be specified
